<svg xmlns="http://www.w3.org/2000/svg" xmlns:xlink="http://www.w3.org/1999/xlink" id="processonSvg1000" viewBox="103.0 38.0 868.0 694.0" width="868.0" height="694.0"><defs id="ProcessOnDefs1001"><marker id="ProcessOnMarker1029" markerUnits="userSpaceOnUse" orient="auto" markerWidth="16.23606797749979" markerHeight="10.550836550532098" viewBox="-1.0 -1.3763819204711736 16.23606797749979 10.550836550532098" refX="-1.0" refY="3.8990363547948754"><path id="ProcessOnPath1030" d="M12.0 3.8990363547948754L0.0 7.798072709589751V0.0Z" stroke="#ff9933" stroke-width="2.0" fill="#ff9933" transform="matrix(1.0,0.0,0.0,1.0,0.0,0.0)"/></marker><marker id="ProcessOnMarker1033" markerUnits="userSpaceOnUse" orient="auto" markerWidth="16.23606797749979" markerHeight="10.550836550532098" viewBox="-1.0 -1.3763819204711736 16.23606797749979 10.550836550532098" refX="-1.0" refY="3.8990363547948754"><path id="ProcessOnPath1034" d="M12.0 3.8990363547948754L0.0 7.798072709589751V0.0Z" stroke="#ff9933" stroke-width="2.0" fill="#ff9933" transform="matrix(1.0,0.0,0.0,1.0,0.0,0.0)"/></marker><marker id="ProcessOnMarker1063" markerUnits="userSpaceOnUse" orient="auto" markerWidth="16.23606797749979" markerHeight="10.550836550532098" viewBox="-1.0 -1.3763819204711736 16.23606797749979 10.550836550532098" refX="-1.0" refY="3.8990363547948754"><path id="ProcessOnPath1064" d="M12.0 3.8990363547948754L0.0 7.798072709589751V0.0Z" stroke="#3399ff" stroke-width="2.0" fill="#3399ff" transform="matrix(1.0,0.0,0.0,1.0,0.0,0.0)"/></marker><marker id="ProcessOnMarker1067" markerUnits="userSpaceOnUse" orient="auto" markerWidth="16.23606797749979" markerHeight="10.550836550532098" viewBox="-1.0 -1.3763819204711736 16.23606797749979 10.550836550532098" refX="-1.0" refY="3.8990363547948754"><path id="ProcessOnPath1068" d="M12.0 3.8990363547948754L0.0 7.798072709589751V0.0Z" stroke="#3399ff" stroke-width="2.0" fill="#3399ff" transform="matrix(1.0,0.0,0.0,1.0,0.0,0.0)"/></marker><marker id="ProcessOnMarker1071" markerUnits="userSpaceOnUse" orient="auto" markerWidth="16.23606797749979" markerHeight="10.550836550532098" viewBox="-1.0 -1.3763819204711736 16.23606797749979 10.550836550532098" refX="-1.0" refY="3.8990363547948754"><path id="ProcessOnPath1072" d="M12.0 3.8990363547948754L0.0 7.798072709589751V0.0Z" stroke="#3399ff" stroke-width="2.0" fill="#3399ff" transform="matrix(1.0,0.0,0.0,1.0,0.0,0.0)"/></marker><marker id="ProcessOnMarker1075" markerUnits="userSpaceOnUse" orient="auto" markerWidth="16.23606797749979" markerHeight="10.550836550532098" viewBox="-1.0 -1.3763819204711736 16.23606797749979 10.550836550532098" refX="-1.0" refY="3.8990363547948754"><path id="ProcessOnPath1076" d="M12.0 3.8990363547948754L0.0 7.798072709589751V0.0Z" stroke="#3399ff" stroke-width="2.0" fill="#3399ff" transform="matrix(1.0,0.0,0.0,1.0,0.0,0.0)"/></marker><marker id="ProcessOnMarker1079" markerUnits="userSpaceOnUse" orient="auto" markerWidth="16.23606797749979" markerHeight="10.550836550532098" viewBox="-1.0 -1.3763819204711736 16.23606797749979 10.550836550532098" refX="-1.0" refY="3.8990363547948754"><path id="ProcessOnPath1080" d="M12.0 3.8990363547948754L0.0 7.798072709589751V0.0Z" stroke="#3399ff" stroke-width="2.0" fill="#3399ff" transform="matrix(1.0,0.0,0.0,1.0,0.0,0.0)"/></marker><marker id="ProcessOnMarker1083" markerUnits="userSpaceOnUse" orient="auto" markerWidth="16.23606797749979" markerHeight="10.550836550532098" viewBox="-1.0 -1.3763819204711736 16.23606797749979 10.550836550532098" refX="-1.0" refY="3.8990363547948754"><path id="ProcessOnPath1084" d="M12.0 3.8990363547948754L0.0 7.798072709589751V0.0Z" stroke="#3399ff" stroke-width="2.0" fill="#3399ff" transform="matrix(1.0,0.0,0.0,1.0,0.0,0.0)"/></marker><marker id="ProcessOnMarker1087" markerUnits="userSpaceOnUse" orient="auto" markerWidth="16.23606797749979" markerHeight="10.550836550532098" viewBox="-1.0 -1.3763819204711736 16.23606797749979 10.550836550532098" refX="-1.0" refY="3.8990363547948754"><path id="ProcessOnPath1088" d="M12.0 3.8990363547948754L0.0 7.798072709589751V0.0Z" stroke="#3399ff" stroke-width="2.0" fill="#3399ff" transform="matrix(1.0,0.0,0.0,1.0,0.0,0.0)"/></marker><marker id="ProcessOnMarker1091" markerUnits="userSpaceOnUse" orient="auto" markerWidth="16.23606797749979" markerHeight="10.550836550532098" viewBox="-1.0 -1.3763819204711736 16.23606797749979 10.550836550532098" refX="-1.0" refY="3.8990363547948754"><path id="ProcessOnPath1092" d="M12.0 3.8990363547948754L0.0 7.798072709589751V0.0Z" stroke="#3399ff" stroke-width="2.0" fill="#3399ff" transform="matrix(1.0,0.0,0.0,1.0,0.0,0.0)"/></marker><marker id="ProcessOnMarker1095" markerUnits="userSpaceOnUse" orient="auto" markerWidth="16.23606797749979" markerHeight="10.550836550532098" viewBox="-1.0 -1.3763819204711736 16.23606797749979 10.550836550532098" refX="-1.0" refY="3.8990363547948754"><path id="ProcessOnPath1096" d="M12.0 3.8990363547948754L0.0 7.798072709589751V0.0Z" stroke="#323232" stroke-width="2.0" fill="#323232" transform="matrix(1.0,0.0,0.0,1.0,0.0,0.0)"/></marker><marker id="ProcessOnMarker1099" markerUnits="userSpaceOnUse" orient="auto" markerWidth="16.23606797749979" markerHeight="10.550836550532098" viewBox="-1.0 -1.3763819204711736 16.23606797749979 10.550836550532098" refX="-1.0" refY="3.8990363547948754"><path id="ProcessOnPath1100" d="M12.0 3.8990363547948754L0.0 7.798072709589751V0.0Z" stroke="#3399ff" stroke-width="2.0" fill="#3399ff" transform="matrix(1.0,0.0,0.0,1.0,0.0,0.0)"/></marker><marker id="ProcessOnMarker1103" markerUnits="userSpaceOnUse" orient="auto" markerWidth="16.23606797749979" markerHeight="10.550836550532098" viewBox="-1.0 -1.3763819204711736 16.23606797749979 10.550836550532098" refX="-1.0" refY="3.8990363547948754"><path id="ProcessOnPath1104" d="M12.0 3.8990363547948754L0.0 7.798072709589751V0.0Z" stroke="#323232" stroke-width="2.0" fill="#323232" transform="matrix(1.0,0.0,0.0,1.0,0.0,0.0)"/></marker><marker id="ProcessOnMarker1107" markerUnits="userSpaceOnUse" orient="auto" markerWidth="16.23606797749979" markerHeight="10.550836550532098" viewBox="-1.0 -1.3763819204711736 16.23606797749979 10.550836550532098" refX="-1.0" refY="3.8990363547948754"><path id="ProcessOnPath1108" d="M12.0 3.8990363547948754L0.0 7.798072709589751V0.0Z" stroke="#323232" stroke-width="2.0" fill="#323232" transform="matrix(1.0,0.0,0.0,1.0,0.0,0.0)"/></marker><marker id="ProcessOnMarker1111" markerUnits="userSpaceOnUse" orient="auto" markerWidth="16.23606797749979" markerHeight="10.550836550532098" viewBox="-1.0 -1.3763819204711736 16.23606797749979 10.550836550532098" refX="-1.0" refY="3.8990363547948754"><path id="ProcessOnPath1112" d="M12.0 3.8990363547948754L0.0 7.798072709589751V0.0Z" stroke="#323232" stroke-width="2.0" fill="#323232" transform="matrix(1.0,0.0,0.0,1.0,0.0,0.0)"/></marker><marker id="ProcessOnMarker1115" markerUnits="userSpaceOnUse" orient="auto" markerWidth="16.23606797749979" markerHeight="10.550836550532098" viewBox="-1.0 -1.3763819204711736 16.23606797749979 10.550836550532098" refX="-1.0" refY="3.8990363547948754"><path id="ProcessOnPath1116" d="M12.0 3.8990363547948754L0.0 7.798072709589751V0.0Z" stroke="#ff9933" stroke-width="2.0" fill="#ff9933" transform="matrix(1.0,0.0,0.0,1.0,0.0,0.0)"/></marker><marker id="ProcessOnMarker1129" markerUnits="userSpaceOnUse" orient="auto" markerWidth="16.23606797749979" markerHeight="10.550836550532098" viewBox="-1.0 -1.3763819204711736 16.23606797749979 10.550836550532098" refX="15.23606797749979" refY="3.8990363547948754"><path id="ProcessOnPath1130" d="M12.0 3.8990363547948754L0.0 7.798072709589751V0.0Z" stroke="#ff9933" stroke-width="2.0" fill="#ff9933" transform="matrix(-1.0,1.2246467991473532E-16,-1.2246467991473532E-16,-1.0,14.23606797749979,7.798072709589751)"/></marker><marker id="ProcessOnMarker1131" markerUnits="userSpaceOnUse" orient="auto" markerWidth="16.23606797749979" markerHeight="10.550836550532098" viewBox="-1.0 -1.3763819204711736 16.23606797749979 10.550836550532098" refX="-1.0" refY="3.8990363547948754"><path id="ProcessOnPath1132" d="M12.0 3.8990363547948754L0.0 7.798072709589751V0.0Z" stroke="#ff9933" stroke-width="2.0" fill="#ff9933" transform="matrix(1.0,0.0,0.0,1.0,0.0,0.0)"/></marker><marker id="ProcessOnMarker1135" markerUnits="userSpaceOnUse" orient="auto" markerWidth="16.23606797749979" markerHeight="10.550836550532098" viewBox="-1.0 -1.3763819204711736 16.23606797749979 10.550836550532098" refX="15.23606797749979" refY="3.8990363547948754"><path id="ProcessOnPath1136" d="M12.0 3.8990363547948754L0.0 7.798072709589751V0.0Z" stroke="#ff9933" stroke-width="2.0" fill="#ff9933" transform="matrix(-1.0,1.2246467991473532E-16,-1.2246467991473532E-16,-1.0,14.23606797749979,7.798072709589751)"/></marker><marker id="ProcessOnMarker1137" markerUnits="userSpaceOnUse" orient="auto" markerWidth="16.23606797749979" markerHeight="10.550836550532098" viewBox="-1.0 -1.3763819204711736 16.23606797749979 10.550836550532098" refX="-1.0" refY="3.8990363547948754"><path id="ProcessOnPath1138" d="M12.0 3.8990363547948754L0.0 7.798072709589751V0.0Z" stroke="#ff9933" stroke-width="2.0" fill="#ff9933" transform="matrix(1.0,0.0,0.0,1.0,0.0,0.0)"/></marker><marker id="ProcessOnMarker1141" markerUnits="userSpaceOnUse" orient="auto" markerWidth="16.23606797749979" markerHeight="10.550836550532098" viewBox="-1.0 -1.3763819204711736 16.23606797749979 10.550836550532098" refX="-1.0" refY="3.8990363547948754"><path id="ProcessOnPath1142" d="M12.0 3.8990363547948754L0.0 7.798072709589751V0.0Z" stroke="#00cc66" stroke-width="2.0" fill="#00cc66" transform="matrix(1.0,0.0,0.0,1.0,0.0,0.0)"/></marker><marker id="ProcessOnMarker1145" markerUnits="userSpaceOnUse" orient="auto" markerWidth="16.23606797749979" markerHeight="10.550836550532098" viewBox="-1.0 -1.3763819204711736 16.23606797749979 10.550836550532098" refX="-1.0" refY="3.8990363547948754"><path id="ProcessOnPath1146" d="M12.0 3.8990363547948754L0.0 7.798072709589751V0.0Z" stroke="#00cc66" stroke-width="2.0" fill="#00cc66" transform="matrix(1.0,0.0,0.0,1.0,0.0,0.0)"/></marker><marker id="ProcessOnMarker1162" markerUnits="userSpaceOnUse" orient="auto" markerWidth="16.23606797749979" markerHeight="10.550836550532098" viewBox="-1.0 -1.3763819204711736 16.23606797749979 10.550836550532098" refX="-1.0" refY="3.8990363547948754"><path id="ProcessOnPath1163" d="M12.0 3.8990363547948754L0.0 7.798072709589751V0.0Z" stroke="#00cc00" stroke-width="2.0" fill="#00cc00" transform="matrix(1.0,0.0,0.0,1.0,0.0,0.0)"/></marker></defs><g id="ProcessOnG1002"><path id="ProcessOnPath1003" d="M103.0 38.0H971.0V732.0H103.0V38.0Z" fill="#ffffff"/><g id="ProcessOnG1004"><g id="ProcessOnG1005" transform="matrix(1.0,0.0,0.0,1.0,123.0,58.0)" opacity="1.0"><path id="ProcessOnPath1006" d="M0.0 0.0L828.0 0.0L828.0 644.0L0.0 644.0Z" stroke="#323232" stroke-width="2.0" stroke-dasharray="none" fill="#ffffff"/></g><g id="ProcessOnG1007" transform="matrix(1.0,0.0,0.0,1.0,294.2017777777778,215.0268336314848)" opacity="1.0"><path id="ProcessOnPath1008" d="M0.0 0.0L75.64533333333333 0.0L75.64533333333333 111.1484794275492L0.0 111.1484794275492Z" stroke="#323232" stroke-width="2.0" stroke-dasharray="none" fill="#cce5ff"/><g id="ProcessOnG1009" transform="matrix(1.0,0.0,0.0,1.0,10.0,40.5742397137746)"><text id="ProcessOnText1010" fill="#323232" font-size="24" x="26.822666666666663" y="24.6" font-family="Comic Sans MS" font-weight="normal" font-style="normal" text-decoration="none" family="Comic Sans MS" text-anchor="middle" size="24">IF</text></g></g><g id="ProcessOnG1011" transform="matrix(1.0,0.0,0.0,1.0,369.84711111111113,215.0268336314848)" opacity="1.0"><path id="ProcessOnPath1012" d="M0.0 0.0L33.17777777777778 0.0L33.17777777777778 111.1484794275492L0.0 111.1484794275492Z" stroke="#323232" stroke-width="2.0" stroke-dasharray="none" fill="#3399ff"/></g><g id="ProcessOnG1013" transform="matrix(1.0,0.0,0.0,1.0,369.84711111111113,297.82110912343467)" opacity="1.0"><path id="ProcessOnPath1014" d="M16.58888888888889 0.0L33.17777777777778 28.354203935599287L0.0 28.354203935599287Z" stroke="#323232" stroke-width="2.0" stroke-dasharray="none" fill="#3399ff"/></g><g id="ProcessOnG1015" transform="matrix(1.0,0.0,0.0,1.0,449.47377777777774,215.0268336314848)" opacity="1.0"><path id="ProcessOnPath1016" d="M0.0 0.0L108.82311111111112 0.0L108.82311111111112 111.1484794275492L0.0 111.1484794275492Z" stroke="#323232" stroke-width="2.0" stroke-dasharray="none" fill="#cce5ff"/><g id="ProcessOnG1017" transform="matrix(1.0,0.0,0.0,1.0,10.0,40.5742397137746)"><text id="ProcessOnText1018" fill="#323232" font-size="24" x="43.41155555555556" y="24.6" font-family="Comic Sans MS" font-weight="normal" font-style="normal" text-decoration="none" family="Comic Sans MS" text-anchor="middle" size="24">ID</text></g></g><g id="ProcessOnG1019" transform="matrix(1.0,0.0,0.0,1.0,558.2968888888889,215.0268336314848)" opacity="1.0"><path id="ProcessOnPath1020" d="M0.0 0.0L33.17777777777778 0.0L33.17777777777778 111.1484794275492L0.0 111.1484794275492Z" stroke="#323232" stroke-width="2.0" stroke-dasharray="none" fill="#3399ff"/></g><g id="ProcessOnG1021" transform="matrix(1.0,0.0,0.0,1.0,451.46444444444444,373.8103756708408)" opacity="1.0"><path id="ProcessOnPath1022" d="M0.0 0.0L108.82311111111112 0.0L108.82311111111112 79.39177101967799L0.0 79.39177101967799Z" stroke="#323232" stroke-width="2.0" stroke-dasharray="none" fill="#ffffcc"/><g id="ProcessOnG1023" transform="matrix(1.0,0.0,0.0,1.0,10.0,25.945885509838995)"><text id="ProcessOnText1024" fill="#323232" font-size="22" x="43.41155555555556" y="22.55" font-family="Comic Sans MS" font-weight="normal" font-style="normal" text-decoration="none" family="Comic Sans MS" text-anchor="middle" size="22">Reg</text></g></g><g id="ProcessOnG1025" transform="matrix(1.0,0.0,0.0,1.0,558.2968888888889,297.82110912343467)" opacity="1.0"><path id="ProcessOnPath1026" d="M16.58888888888889 0.0L33.17777777777778 28.354203935599287L0.0 28.354203935599287Z" stroke="#323232" stroke-width="2.0" stroke-dasharray="none" fill="#3399ff"/></g><g id="ProcessOnG1027"><path id="ProcessOnPath1028" d="M481.988 373.8103756708408L481.5366620053653 341.4099030148494" stroke="#ff9933" stroke-width="2.0" stroke-dasharray="none" fill="none" marker-end="url(#ProcessOnMarker1029)"/></g><g id="ProcessOnG1031"><path id="ProcessOnPath1032" d="M530.4275555555555 326.175313059034L531.330355005851 358.58021720057235" stroke="#ff9933" stroke-width="2.0" stroke-dasharray="none" fill="none" marker-end="url(#ProcessOnMarker1033)"/></g><g id="ProcessOnG1035" transform="matrix(1.0,0.0,0.0,1.0,625.9795555555556,215.0268336314848)" opacity="1.0"><path id="ProcessOnPath1036" d="M0.0 0.0L75.64533333333333 0.0L75.64533333333333 111.1484794275492L0.0 111.1484794275492Z" stroke="#323232" stroke-width="2.0" stroke-dasharray="none" fill="#cce5ff"/><g id="ProcessOnG1037" transform="matrix(1.0,0.0,0.0,1.0,10.0,40.5742397137746)"><text id="ProcessOnText1038" fill="#323232" font-size="24" x="26.822666666666663" y="24.6" font-family="Comic Sans MS" font-weight="normal" font-style="normal" text-decoration="none" family="Comic Sans MS" text-anchor="middle" size="24">EX</text></g></g><g id="ProcessOnG1039" transform="matrix(1.0,0.0,0.0,1.0,701.6248888888889,215.0268336314848)" opacity="1.0"><path id="ProcessOnPath1040" d="M0.0 0.0L33.17777777777778 0.0L33.17777777777778 111.1484794275492L0.0 111.1484794275492Z" stroke="#323232" stroke-width="2.0" stroke-dasharray="none" fill="#3399ff"/></g><g id="ProcessOnG1041" transform="matrix(1.0,0.0,0.0,1.0,701.6248888888889,297.82110912343467)" opacity="1.0"><path id="ProcessOnPath1042" d="M16.58888888888889 0.0L33.17777777777778 28.354203935599287L0.0 28.354203935599287Z" stroke="#323232" stroke-width="2.0" stroke-dasharray="none" fill="#3399ff"/></g><g id="ProcessOnG1043" transform="matrix(1.0,0.0,0.0,1.0,769.3075555555556,215.0268336314848)" opacity="1.0"><path id="ProcessOnPath1044" d="M0.0 0.0L103.51466666666666 0.0L103.51466666666666 111.1484794275492L0.0 111.1484794275492Z" stroke="#323232" stroke-width="2.0" stroke-dasharray="none" fill="#cce5ff"/><g id="ProcessOnG1045" transform="matrix(1.0,0.0,0.0,1.0,10.0,40.5742397137746)"><text id="ProcessOnText1046" fill="#323232" font-size="24" x="40.75733333333333" y="24.6" font-family="Comic Sans MS" font-weight="normal" font-style="normal" text-decoration="none" family="Comic Sans MS" text-anchor="middle" size="24">MEM</text></g></g><g id="ProcessOnG1047" transform="matrix(1.0,0.0,0.0,1.0,872.8222222222223,215.0268336314848)" opacity="1.0"><path id="ProcessOnPath1048" d="M0.0 0.0L33.17777777777778 0.0L33.17777777777778 111.1484794275492L0.0 111.1484794275492Z" stroke="#323232" stroke-width="2.0" stroke-dasharray="none" fill="#3399ff"/></g><g id="ProcessOnG1049" transform="matrix(1.0,0.0,0.0,1.0,872.8222222222223,297.82110912343467)" opacity="1.0"><path id="ProcessOnPath1050" d="M16.58888888888889 0.0L33.17777777777778 28.354203935599287L0.0 28.354203935599287Z" stroke="#323232" stroke-width="2.0" stroke-dasharray="none" fill="#3399ff"/></g><g id="ProcessOnG1051" transform="matrix(1.0,0.0,0.0,1.0,160.8271111111111,215.0268336314848)" opacity="1.0"><path id="ProcessOnPath1052" d="M0.0 0.0L71.664 0.0L71.664 111.1484794275492L0.0 111.1484794275492Z" stroke="#323232" stroke-width="2.0" stroke-dasharray="none" fill="#ffffcc"/><g id="ProcessOnG1053" transform="matrix(1.0,0.0,0.0,1.0,10.0,40.5742397137746)"><text id="ProcessOnText1054" fill="#323232" font-size="24" x="24.832" y="24.6" font-family="Comic Sans MS" font-weight="normal" font-style="normal" text-decoration="none" family="Comic Sans MS" text-anchor="middle" size="24">PC</text></g></g><g id="ProcessOnG1055" transform="matrix(6.123233995736766E-17,1.0,-1.0,6.123233995736766E-17,184.1034593520175,215.94215782150667)" opacity="1.0"><path id="ProcessOnPath1056" d="M15.261777777777779 0.0L30.523555555555557 22.683363148479426L0.0 22.683363148479426Z" stroke="#323232" stroke-width="2.0" stroke-dasharray="none" fill="#ffffcc"/></g><g id="ProcessOnG1057" transform="matrix(1.0,0.0,0.0,1.0,159.5,88.0)" opacity="1.0"><path id="ProcessOnPath1058" d="M0.0 0.0L746.5 0.0L746.5 72.58676207513417L0.0 72.58676207513417Z" stroke="#000000" stroke-width="2.0" stroke-dasharray="none" fill="#0066cc"/><g id="ProcessOnG1059" transform="matrix(1.0,0.0,0.0,1.0,10.0,21.293381037567087)"><text id="ProcessOnText1060" fill="#ffffff" font-size="24" x="362.25" y="24.6" font-family="Comic Sans MS" font-weight="normal" font-style="normal" text-decoration="none" family="Comic Sans MS" text-anchor="middle" size="24">Control/Stall</text></g></g><g id="ProcessOnG1061"><path id="ProcessOnPath1062" d="M332.02444444444444 215.0268336314848L332.502305412349 175.82169840368874" stroke="#3399ff" stroke-width="2.0" stroke-dasharray="none" fill="none" marker-end="url(#ProcessOnMarker1063)"/></g><g id="ProcessOnG1065"><path id="ProcessOnPath1066" d="M503.8853333333333 215.0268336314848L503.88533333333334 175.82283005263398" stroke="#3399ff" stroke-width="2.0" stroke-dasharray="none" fill="none" marker-end="url(#ProcessOnMarker1067)"/></g><g id="ProcessOnG1069"><path id="ProcessOnPath1070" d="M663.8022222222223 215.0268336314848L663.3243612543178 175.82169840368874" stroke="#3399ff" stroke-width="2.0" stroke-dasharray="none" fill="none" marker-end="url(#ProcessOnMarker1071)"/></g><g id="ProcessOnG1073"><path id="ProcessOnPath1074" d="M821.064888888889 215.0268336314848L820.1090842297385 175.81830496919866" stroke="#3399ff" stroke-width="2.0" stroke-dasharray="none" fill="none" marker-end="url(#ProcessOnMarker1075)"/></g><g id="ProcessOnG1077"><path id="ProcessOnPath1078" d="M888.7475555555556 160.58676207513417L889.2254165234601 199.79189730293024" stroke="#3399ff" stroke-width="2.0" stroke-dasharray="none" fill="none" marker-end="url(#ProcessOnMarker1079)"/></g><g id="ProcessOnG1081"><path id="ProcessOnPath1082" d="M717.5502222222221 160.58676207513417L718.0280831901267 199.79189730293024" stroke="#3399ff" stroke-width="2.0" stroke-dasharray="none" fill="none" marker-end="url(#ProcessOnMarker1083)"/></g><g id="ProcessOnG1085"><path id="ProcessOnPath1086" d="M574.2222222222222 160.58676207513417L574.7000831901267 199.79189730293024" stroke="#3399ff" stroke-width="2.0" stroke-dasharray="none" fill="none" marker-end="url(#ProcessOnMarker1087)"/></g><g id="ProcessOnG1089"><path id="ProcessOnPath1090" d="M387.0995555555555 160.58676207513417L386.621694587651 199.79189730293024" stroke="#3399ff" stroke-width="2.0" stroke-dasharray="none" fill="none" marker-end="url(#ProcessOnMarker1091)"/></g><g id="ProcessOnG1093"><path id="ProcessOnPath1094" d="M232.4911111111111 270.6010733452594L278.96570980027803 270.6010733452594" stroke="#323232" stroke-width="2.0" stroke-dasharray="none" fill="none" marker-end="url(#ProcessOnMarker1095)"/></g><g id="ProcessOnG1097"><path id="ProcessOnPath1098" d="M194.66844444444445 160.58676207513417L196.10235805739245 199.8009414260287" stroke="#3399ff" stroke-width="2.0" stroke-dasharray="none" fill="none" marker-end="url(#ProcessOnMarker1099)"/></g><g id="ProcessOnG1101"><path id="ProcessOnPath1102" d="M403.0248888888889 270.6010733452594L434.23770980027797 270.6010733452594" stroke="#323232" stroke-width="2.0" stroke-dasharray="none" fill="none" marker-end="url(#ProcessOnMarker1103)"/></g><g id="ProcessOnG1105"><path id="ProcessOnPath1106" d="M591.4746666666667 270.6010733452594L610.7434875780558 270.6010733452594" stroke="#323232" stroke-width="2.0" stroke-dasharray="none" fill="none" marker-end="url(#ProcessOnMarker1107)"/></g><g id="ProcessOnG1109"><path id="ProcessOnPath1110" d="M734.8026666666667 270.6010733452594L754.0714875780558 270.6010733452594" stroke="#323232" stroke-width="2.0" stroke-dasharray="none" fill="none" marker-end="url(#ProcessOnMarker1111)"/></g><g id="ProcessOnG1113"><path id="ProcessOnPath1114" d="M889.4111111111112 326.17531305903395L889.4111111111112 413.5062611806798L575.5236235330555 413.5062611806798" stroke="#ff9933" stroke-width="2.0" stroke-dasharray="none" fill="none" marker-end="url(#ProcessOnMarker1115)"/></g><g id="ProcessOnG1117" transform="matrix(6.123233995736766E-17,1.0,-1.0,6.123233995736766E-17,473.74079268535075,374.15861578215066)" opacity="1.0"><path id="ProcessOnPath1118" d="M15.261777777777779 0.0L30.523555555555557 22.683363148479426L0.0 22.683363148479426Z" stroke="#323232" stroke-width="2.0" stroke-dasharray="none" fill="#ffffcc"/></g><g id="ProcessOnG1119" transform="matrix(1.0,0.0,0.0,1.0,159.5,477.0196779964222)" opacity="1.0"><path id="ProcessOnPath1120" d="M0.0 0.0L746.5 0.0L746.5 96.40429338103756L0.0 96.40429338103756Z" stroke="#000000" stroke-width="2.0" stroke-dasharray="none" fill="#ffcc99"/><g id="ProcessOnG1121" transform="matrix(1.0,0.0,0.0,1.0,10.0,33.20214669051878)"><text id="ProcessOnText1122" fill="#323232" font-size="24" x="362.25" y="24.6" font-family="Comic Sans MS" font-weight="normal" font-style="normal" text-decoration="none" family="Comic Sans MS" text-anchor="middle" size="24">MemCtrl</text></g></g><g id="ProcessOnG1123" transform="matrix(1.0,0.0,0.0,1.0,159.5,477.0196779964222)" opacity="1.0"><path id="ProcessOnPath1124" d="M0.0 0.0L236.41865509761388 0.0L236.41865509761388 62.12721129000199L0.0 62.12721129000199Z" stroke="#000000" stroke-width="2.0" stroke-dasharray="none" fill="#ffe6cc"/><g id="ProcessOnG1125" transform="matrix(1.0,0.0,0.0,1.0,10.0,16.063605645000994)"><text id="ProcessOnText1126" fill="#323232" font-size="24" x="107.20932754880694" y="24.6" font-family="Comic Sans MS" font-weight="normal" font-style="normal" text-decoration="none" family="Comic Sans MS" text-anchor="middle" size="24">I-Cache</text></g></g><g id="ProcessOnG1127"><path id="ProcessOnPath1128" d="M331.9574225193006 341.4112336244788L331.4279108140327 461.7837574309774" stroke="#ff9933" stroke-width="2.0" stroke-dasharray="none" fill="none" marker-start="url(#ProcessOnMarker1129)" marker-end="url(#ProcessOnMarker1131)"/></g><g id="ProcessOnG1133"><path id="ProcessOnPath1134" d="M821.064888888889 341.4113810365338L821.064888888889 401.59749552772814L821.064888888889 401.59749552772814L821.064888888889 461.78361001892245" stroke="#ff9933" stroke-width="2.0" stroke-dasharray="none" fill="none" marker-start="url(#ProcessOnMarker1135)" marker-end="url(#ProcessOnMarker1137)"/></g><g id="ProcessOnG1139"><path id="ProcessOnPath1140" d="M718.2137777777778 326.17531305903395L718.2137777777778 364.17531305903395L663.8022222222223 364.175313059034L663.8022222222223 341.4113810365338" stroke="#00cc66" stroke-width="2.0" stroke-dasharray="none" fill="none" marker-end="url(#ProcessOnMarker1141)"/></g><g id="ProcessOnG1143"><path id="ProcessOnPath1144" d="M889.4111111111112 326.17531305903395L889.4111111111112 364.175313059034L663.8022222222223 364.175313059034L663.8022222222223 341.4113810365338" stroke="#00cc66" stroke-width="2.0" stroke-dasharray="none" fill="none" marker-end="url(#ProcessOnMarker1145)"/></g><g id="ProcessOnG1147" transform="matrix(1.0,0.0,0.0,1.0,159.5,573.4239713774598)" opacity="1.0"><path id="ProcessOnPath1148" d="M0.0 0.0L746.5 0.0L746.5 52.17173524150268L0.0 52.17173524150268Z" stroke="#323232" stroke-width="2.0" stroke-dasharray="none" fill="#ff8000"/><g id="ProcessOnG1149" transform="matrix(1.0,0.0,0.0,1.0,10.0,11.08586762075134)"><text id="ProcessOnText1150" fill="#ffffff" font-size="24" x="362.25" y="24.6" font-family="Comic Sans MS" font-weight="normal" font-style="normal" text-decoration="none" family="Comic Sans MS" text-anchor="middle" size="24">Memory</text></g></g><g id="ProcessOnG1151" transform="matrix(1.0,0.0,0.0,1.0,251.73422222222223,604.2540250447228)" opacity="1.0"><path id="ProcessOnPath1152" d="M0.0 0.0L654.2657777777778 0.0L654.2657777777778 107.74597495527728L0.0 107.74597495527728Z" stroke="none" stroke-width="0.0" stroke-dasharray="none" fill="none"/><g id="ProcessOnG1153" transform="matrix(1.0,0.0,0.0,1.0,0.0,31.372987477638638)"><text id="ProcessOnText1154" fill="#323232" font-size="18" x="652.2657777777778" y="18.45" font-family="Comic Sans MS" font-weight="normal" font-style="normal" text-decoration="none" family="Comic Sans MS" text-anchor="end" size="18">Five-Stage Pipeline of RISC-V CPU</text><text id="ProcessOnText1155" fill="#323232" font-size="18" x="652.2657777777778" y="40.95" font-family="Comic Sans MS" font-weight="normal" font-style="normal" text-decoration="none" family="Comic Sans MS" text-anchor="end" size="18"> By Su Qidong</text></g></g><g id="ProcessOnG1156" transform="matrix(1.0,0.0,0.0,1.0,630.0,356.76207513416813)" opacity="1.0"><path id="ProcessOnPath1157" d="M0.0 0.0L160.0 0.0L160.0 40.0L0.0 40.0Z" stroke="none" stroke-width="0.0" stroke-dasharray="none" fill="none"/><g id="ProcessOnG1158" transform="matrix(1.0,0.0,0.0,1.0,0.0,10.0)"><text id="ProcessOnText1159" fill="#00cc00" font-size="16" x="79.0" y="16.4" font-family="Comic Sans MS" font-weight="normal" font-style="normal" text-decoration="none" family="Comic Sans MS" text-anchor="middle" size="16">Forwarding</text></g></g><g id="ProcessOnG1160"><path id="ProcessOnPath1161" d="M574.8857777777778 326.17531305903395L574.8857777777778 346.17531305903395L503.8853333333333 346.175313059034L503.8853333333333 341.4113810365338" stroke="#00cc00" stroke-width="2.0" stroke-dasharray="none" fill="none" marker-end="url(#ProcessOnMarker1162)"/></g><g id="ProcessOnG1164" transform="matrix(1.0,0.0,0.0,1.0,518.6608888888888,319.0787119856887)" opacity="1.0"><path id="ProcessOnPath1165" d="M0.0 0.0L160.0 0.0L160.0 40.0L0.0 40.0Z" stroke="none" stroke-width="0.0" stroke-dasharray="none" fill="none"/><g id="ProcessOnG1166" transform="matrix(1.0,0.0,0.0,1.0,0.0,10.0)"><text id="ProcessOnText1167" fill="#00cc00" font-size="16" x="79.0" y="16.4" font-family="Comic Sans MS" font-weight="normal" font-style="normal" text-decoration="none" family="Comic Sans MS" text-anchor="middle" size="16">load?</text></g></g></g></g></svg>